<?xml version="1.0" encoding="UTF-8"?>
<svg version="1.1" xmlns="http://www.w3.org/2000/svg" width="640" height="225">
<path d="M0 0 C4.60482412 4.3045095 5.86294895 8.00463993 7 14 C7.60585937 13.46890625 8.21171875 12.9378125 8.8359375 12.390625 C17.074405 5.44496317 24.43520078 1.16198209 35.453125 1.61328125 C40.61968784 2.39777469 43.7719498 4.70731558 47.375 8.5 C48.88299687 10.81999519 49.4282396 12.3542068 50 15 C50.4846875 14.54109375 50.969375 14.0821875 51.46875 13.609375 C61.54465923 4.38604271 73.67325889 0.15566635 87.5078125 0.72265625 C97.13024411 1.79349112 104.67191388 4.53404166 112 11 C113.04087941 12.30167117 114.05540109 13.62686101 115 15 C115.21914063 14.48050781 115.43828125 13.96101563 115.6640625 13.42578125 C117.967144 8.36087437 120.16770548 5.04255581 125 2 C131.48600932 -0.27445629 136.57730397 -0.35498854 143 2 C147.35025601 4.21616815 149.87291447 6.30033925 151.54052734 11.00097656 C153.7592847 20.65410369 150.94807882 31.50353667 149.5 41.125 C149.25845971 42.76552871 149.01756895 44.4061532 148.77734375 46.046875 C148.19237949 50.03239378 147.59863753 54.01651303 147 58 C147.68707031 57.98839844 148.37414062 57.97679687 149.08203125 57.96484375 C149.98308594 57.95582031 150.88414062 57.94679687 151.8125 57.9375 C152.70582031 57.92589844 153.59914063 57.91429687 154.51953125 57.90234375 C157 58 157 58 160 59 C160.4125 57.75347656 160.825 56.50695313 161.25 55.22265625 C175.45748677 13.02137474 175.45748677 13.02137474 190.015625 3.7109375 C195.24004777 1.83919549 201.17660039 2.30081824 206.25 4.4375 C214.60097684 9.25989508 217.73949856 19.47364445 221 28 C221.02578125 27.01 221.0515625 26.02 221.078125 25 C221.41430248 16.14844698 221.85919965 8.93881009 228.5625 2.5625 C233.96235439 -0.89894512 239.78857233 -0.5661048 246 0 C250.34880491 1.27012715 253.16787341 2.95984177 256 6.5 C257 9 257 9 257 13 C257.66 13 258.32 13 259 13 C259.04125 12.278125 259.0825 11.55625 259.125 10.8125 C260.32684532 6.94942576 262.70789134 5.11745956 266 3 C272.20482064 0.10441704 278.37221844 0.18151066 284.8125 2.1875 C290.35426481 5.3386996 292.30580638 8.99710385 294 15 C294.26742554 18.09738159 294.26742554 18.09738159 294.29052734 21.42919922 C294.30328705 22.68425262 294.31604675 23.93930603 294.32919312 25.23239136 C294.33225107 26.58982182 294.33447867 27.94725437 294.3359375 29.3046875 C294.34237316 30.7118442 294.34910208 32.11899959 294.35610962 33.52615356 C294.36805328 36.46977844 294.37179343 39.41328621 294.37060547 42.35693359 C294.37040237 46.11164491 294.39770722 49.86559858 294.43214989 53.62013054 C294.45448822 56.52510973 294.45844092 59.4299085 294.45738602 62.33496475 C294.45973145 63.71834042 294.46849489 65.10172186 294.48405075 66.48501205 C294.5648119 74.40767014 294.4088391 80.28200991 290 87 C284.99074348 91.8840251 280.3708895 92.36112406 273.6015625 92.28125 C268.13679863 91.69046472 264.30315237 89.3699807 260.5625 85.4375 C257.85587939 81.21517184 257.71480658 77.18127616 257.4375 72.3125 C257.39431641 71.61060547 257.35113281 70.90871094 257.30664062 70.18554688 C257.2008264 68.45724794 257.09993419 66.7286489 257 65 C257.01571045 65.62455078 257.0314209 66.24910156 257.04760742 66.89257812 C257.11052044 69.76162417 257.14916731 72.63052442 257.1875 75.5 C257.22520508 76.97339844 257.22520508 76.97339844 257.26367188 78.4765625 C257.32973796 85.08317146 257.17069377 91.60789311 252.39526367 96.71679688 C251.70460815 97.35198242 251.70460815 97.35198242 251 98 C251.66386719 98.17015625 252.32773437 98.3403125 253.01171875 98.515625 C259.56127392 100.31316715 263.99868493 101.89451109 267.8125 107.8125 C269.63669456 112.70902223 269.63669456 116.29097777 267.8125 121.1875 C264.56232355 126.23087725 260.80782982 128.63345181 255 130 C253.60105605 130.04970783 252.20050159 130.06413774 250.80078125 130.046875 C249.54652344 130.03140625 248.29226563 130.0159375 247 130 C247.00999275 131.08541832 247.00999275 131.08541832 247.02018738 132.19276428 C247.08045868 139.03353996 247.12605556 145.87427561 247.15543652 152.71524906 C247.17104978 156.23174998 247.19220765 159.7480303 247.22631836 163.2644043 C247.26534335 167.31300905 247.27974501 171.36138439 247.29296875 175.41015625 C247.30845261 176.66458023 247.32393646 177.91900421 247.33988953 179.21144104 C247.34142733 187.22438405 246.89653693 192.47718481 241.6875 198.8125 C237.17147114 202.48833745 232.89658059 203.4350944 227.08203125 203.24609375 C221.84106416 202.62661734 217.59671919 201.0740419 214.0625 197.0625 C211.03946263 192.57374754 210.87540024 189.30628181 210.88647461 183.94628906 C210.88655014 182.72532532 210.88662567 181.50436157 210.88670349 180.24639893 C210.89186478 178.93274353 210.89702606 177.61908813 210.90234375 176.265625 C210.90420979 174.9037074 210.90563282 173.54178912 210.90663147 172.17987061 C210.91044197 168.60258111 210.92025968 165.02533248 210.93133545 161.44805908 C210.94158116 157.79480543 210.94613585 154.14154514 210.95117188 150.48828125 C210.96188331 143.32550224 210.97894206 136.16275686 211 129 C210.25814453 128.94884033 209.51628906 128.89768066 208.75195312 128.8449707 C207.77162109 128.76851318 206.79128906 128.69205566 205.78125 128.61328125 C204.81251953 128.54149658 203.84378906 128.46971191 202.84570312 128.39575195 C197.89203017 127.70684462 193.71181547 125.8886227 190.3359375 122.1640625 C187.73379834 117.94890141 187.4647648 112.74892642 188.40234375 107.93359375 C190.08466408 103.32463332 192.77183353 101.2435169 197 99 C200.2813169 97.95406926 203.42797318 97.80614381 206.859375 97.68359375 C207.97441406 97.64169922 209.08945312 97.59980469 210.23828125 97.55664062 C211.97658203 97.49766602 211.97658203 97.49766602 213.75 97.4375 C214.92433594 97.39431641 216.09867187 97.35113281 217.30859375 97.30664062 C220.20561451 97.20065206 223.10271935 97.09858362 226 97 C225.03320312 95.91138672 225.03320312 95.91138672 224.046875 94.80078125 C221.95339855 91.93623428 221.45628419 90.64276026 221.25 87.1875 C221.19328125 86.39730469 221.1365625 85.60710937 221.078125 84.79296875 C221.05234375 84.20128906 221.0265625 83.60960938 221 83 C219.515 83.495 219.515 83.495 218 84 C210.76905486 84.48206301 205.83175519 83.40083592 200.125 78.5625 C198.16997203 76.20496627 197.33210164 74.98891479 197 72 C195.515 72.495 195.515 72.495 194 73 C192.92784073 75.62368456 192.92784073 75.62368456 192.125 78.75 C190.04101332 85.37943686 187.84991265 88.44061383 181.6875 91.8125 C174.18578016 94.22830808 168.98388937 93.13070903 162 90 C161.34 89.34 160.68 88.68 160 88 C158.14691829 88.19686318 156.29437086 88.40859107 154.45214844 88.68945312 C149.69580638 89.29180947 144.91299567 89.22608991 140.125 89.25 C139.10019531 89.270625 138.07539063 89.29125 137.01953125 89.3125 C129.05498736 89.35298053 121.79728152 88.45241098 115 84.0625 C111.64765337 80.60539253 111 78.87055876 111 74 C110.34 74 109.68 74 109 74 C108.77441406 74.58652344 108.54882812 75.17304687 108.31640625 75.77734375 C104.76728881 81.76977053 95.98041144 85.64931784 89.41796875 87.49609375 C77.74125588 89.92952826 65.53645726 89.49788563 55.0546875 83.2421875 C52.14535564 81.0063987 49.59011446 78.59011446 47 76 C46.2575 77.8253125 46.2575 77.8253125 45.5 79.6875 C43.02701347 84.5218452 40.14596424 87.18426953 35 89 C24.3075008 90.64388083 16.49048144 87.09573026 8 81 C8.09539062 81.95261719 8.19078125 82.90523438 8.2890625 83.88671875 C8.39992188 85.14097656 8.51078125 86.39523438 8.625 87.6875 C8.74101562 88.92886719 8.85703125 90.17023438 8.9765625 91.44921875 C8.99953004 94.92880169 8.54051631 96.92484721 7 100 C8.10408203 100.18175781 8.10408203 100.18175781 9.23046875 100.3671875 C10.20628906 100.53476563 11.18210938 100.70234375 12.1875 100.875 C13.15042969 101.03742188 14.11335937 101.19984375 15.10546875 101.3671875 C18 102 18 102 20.36328125 103.2578125 C23.75022549 104.21117458 25.38572489 103.09489926 28.51953125 101.76464844 C33.83011364 100.12756733 39.49393053 100.57316462 45 100.625 C46.84851563 100.60759766 46.84851563 100.60759766 48.734375 100.58984375 C55.61483174 100.61199114 60.71186382 101.24894042 67 104 C70.57814356 104 71.75429054 103.84536302 74.8125 102.5 C81.10954419 100.03948829 86.72517756 100.55979127 93 103 C96.49667989 105.94038991 98.82655131 108.99627872 101 113 C101.391875 112.2575 101.78375 111.515 102.1875 110.75 C105.44460099 105.8081916 108.97698392 103.47769771 114.8203125 102.25390625 C120.23891033 101.62270758 124.561948 102.22771281 129.375 104.8125 C132.79292814 107.66077345 134.5938576 109.78157279 136 114 C136.14939774 115.91765594 136.24810283 117.83946522 136.31640625 119.76171875 C136.37924805 121.43911133 136.37924805 121.43911133 136.44335938 123.15039062 C136.48267578 124.31763672 136.52199219 125.48488281 136.5625 126.6875 C136.62727539 128.45577148 136.62727539 128.45577148 136.69335938 130.25976562 C136.79951176 133.17305883 136.90156242 136.08643757 137 139 C137.49628906 137.97261719 137.99257813 136.94523438 138.50390625 135.88671875 C150.87967828 110.53095484 150.87967828 110.53095484 160.25 105.125 C166.33507519 103.29947744 171.46469285 103.88928528 177.125 106.8125 C188.07306539 114.5456573 190.71200146 129.86446316 194 142 C194.67894818 144.45517192 195.36130489 146.90937795 196.04394531 149.36352539 C196.46781297 150.89417648 196.88783513 152.42589847 197.30371094 153.95874023 C198.34398984 157.77295291 199.49105395 161.480278 200.875 165.1875 C202.13066549 169.44281081 202.27975525 171.76081072 201 176 C197.89774272 180.74462878 194.56502993 183.73664424 189 185 C181.96698696 185.85153073 175.74905273 185.43691599 170 181 C167.85116187 178.61375483 166 176.33495609 166 173 C165.01 173 164.02 173 163 173 C162.85304688 173.96099609 162.85304688 173.96099609 162.703125 174.94140625 C161.62789579 181.16105109 160.58326851 187.07633813 155.4296875 191.28125 C149.93961356 194.72793319 144.6505055 195.48414597 138.3125 194.1875 C135.93416722 193.62565584 134.09696726 193.05538322 131.96875 191.83984375 C130.04771637 190.78815797 130.04771637 190.78815797 128.10546875 191.4609375 C127.47253906 191.76257813 126.83960938 192.06421875 126.1875 192.375 C120.11451972 194.8895057 114.87473634 194.52605395 108.859375 192.04296875 C104.83170994 189.78375326 102.6523702 186.52733968 100.84375 182.29296875 C99.85628981 178.43913107 99.99629595 175.03322579 100.375 171.125 C100.43171875 170.43664062 100.4884375 169.74828125 100.546875 169.0390625 C100.68692828 167.35842311 100.84192245 165.67903995 101 164 C100.34 164 99.68 164 99 164 C99.02094727 164.78125244 99.04189453 165.56250488 99.06347656 166.36743164 C99.14700183 169.93232174 99.19877689 173.49700541 99.25 177.0625 C99.28351563 178.29162109 99.31703125 179.52074219 99.3515625 180.78710938 C99.42654372 187.74161777 99.36973499 192.44207231 95 198 C89.99985471 201.72559845 85.26826952 203.28207213 79 203 C73.97255145 201.9579181 70.61950027 200.61950027 67 197 C64.67790896 197.12761142 64.67790896 197.12761142 62 198 C56.4127932 199.57756427 51.42370417 200.35761578 45.625 200.3125 C44.51463379 200.30621582 44.51463379 200.30621582 43.38183594 200.29980469 C36.23020466 200.15283194 30.25576787 198.93960639 24.0625 195.25 C20.3432368 191.19262197 18.81422672 186.37389632 18 181 C17.2575 182.5778125 17.2575 182.5778125 16.5 184.1875 C13.74824543 189.03255359 9.41242589 191.85523319 4.171875 193.61328125 C-4.55439399 195.16705936 -12.53109809 194.88351278 -20 190 C-20.66 189.34 -21.32 188.68 -22 188 C-24.87787192 187.20026683 -27.71014089 186.50460957 -30.625 185.875 C-31.40746094 185.69324219 -32.18992187 185.51148438 -32.99609375 185.32421875 C-41.73718464 183.16846212 -41.73718464 183.16846212 -50.03125 185.28515625 C-50.5159375 185.87167969 -51.000625 186.45820313 -51.5 187.0625 C-53.95603822 189.83962578 -56.43039187 192.33686822 -59.25 194.75 C-61.09736029 196.3313404 -62.87833233 197.87095854 -64.546875 199.640625 C-66.9170815 201.85791495 -69.21001241 202.02333471 -72.375 202.375 C-76 202 -76 202 -78.8125 199.9375 C-83.59028208 193.52162121 -83.53962162 185.79237353 -84.125 178.0625 C-84.21136719 176.99708984 -84.29773438 175.93167969 -84.38671875 174.83398438 C-84.59746345 172.22309173 -84.80171135 169.61186316 -85 167 C-85.73661865 166.71552002 -86.4732373 166.43104004 -87.23217773 166.13793945 C-91.34119466 164.44859237 -95.17009046 162.32062839 -99.0625 160.1875 C-99.86494141 159.76146484 -100.66738281 159.33542969 -101.49414062 158.89648438 C-105.89101342 156.48458984 -109.34710938 154.41446613 -112 150 C-112.56640625 147.71875 -112.56640625 147.71875 -112.5625 145.5 C-112.58441406 144.7678125 -112.60632813 144.035625 -112.62890625 143.28125 C-111.68205163 139.84669659 -109.83093848 138.00003165 -107 136 C-102.37748517 133.62886306 -97.55837468 131.71305667 -92.75195312 129.75 C-91.3065918 129.13125 -91.3065918 129.13125 -89.83203125 128.5 C-88.95264893 128.1390625 -88.0732666 127.778125 -87.16723633 127.40625 C-83.66157368 125.13153818 -83.27242816 122.21567642 -82.39331055 118.29272461 C-82.22613525 117.33889893 -82.05895996 116.38507324 -81.88671875 115.40234375 C-81.69013672 114.35369141 -81.49355469 113.30503906 -81.29101562 112.22460938 C-80.88835416 110.03147267 -80.49773678 107.83609077 -80.11914062 105.63867188 C-78.59106652 97.65436183 -78.59106652 97.65436183 -75.51953125 94.25390625 C-73 93 -73 93 -70 93 C-70.680625 92.0409375 -70.680625 92.0409375 -71.375 91.0625 C-73.44541527 87.16056352 -74.20081414 83.31560367 -75 79 C-75.36738281 79.77923828 -75.36738281 79.77923828 -75.7421875 80.57421875 C-79.14975532 86.93109527 -83.33934437 89.47653209 -90 92 C-97.44017487 94.2292127 -105.04982202 93.40774231 -112 90 C-115.76257039 86.86452468 -117.71749228 84.69077024 -118.23828125 79.73046875 C-118.40765685 73.92712587 -117.98954872 70.54365271 -114 66 C-112.68299075 64.97859684 -111.35217997 63.97436498 -110 63 C-110.15146484 62.351521 -110.30292969 61.70304199 -110.45898438 61.03491211 C-118.37693954 26.63748764 -118.37693954 26.63748764 -111 13 C-106.35650109 5.81920461 -99.78719893 1.40214542 -91.46875 -0.61328125 C-84.46352499 -1.71061871 -79.33924005 -1.16962003 -73 2 C-72.01 2.33 -71.02 2.66 -70 3 C-69.2575 2.54625 -68.515 2.0925 -67.75 1.625 C-61.86617444 -1.85180601 -54.424252 -1.2236881 -47.75 -1.25 C-46.35382446 -1.25918457 -46.35382446 -1.25918457 -44.92944336 -1.26855469 C-38.87157986 -1.22830662 -33.84349282 -0.37135198 -28.09375 1.59375 C-25.68566233 2.28372444 -25.68566233 2.28372444 -22.5625 0.25 C-21.716875 -0.4925 -20.87125 -1.235 -20 -2 C-13.55535565 -4.57785774 -5.90459316 -3.35057214 0 0 Z M257 26 C257 27.98 257 29.96 257 32 C257.33 32 257.66 32 258 32 C258 30.02 258 28.04 258 26 C257.67 26 257.34 26 257 26 Z M-79 29 C-79.24991456 35.65050424 -78.73955334 41.56986533 -77 48 C-76.67 48 -76.34 48 -76 48 C-75.67 41.4 -75.34 34.8 -75 28 C-77.0745356 27.8509288 -77.0745356 27.8509288 -79 29 Z M26.43725586 41.42651367 C24.27647976 43.60347009 22.13271583 45.79552924 20 48 C23.14518869 51.26313326 26.27922173 54.10039636 30 56.6875 C31.2375 57.55955078 31.2375 57.55955078 32.5 58.44921875 C34.94110709 59.96346799 37.30466915 61.02294257 40 62 C39.89300781 61.030625 39.78601563 60.06125 39.67578125 59.0625 C38.70943206 48.85744188 39.65648052 39.95664774 42 30 C36.26250174 30 30.3413668 37.55117843 26.43725586 41.42651367 Z M79 33 C78.3490741 34.24735567 77.70448331 35.49801832 77.0625 36.75 C76.52302734 37.79414062 76.52302734 37.79414062 75.97265625 38.859375 C74.35227693 42.42551102 73.84591974 45.59657491 73.8125 49.5 C73.79832031 50.2528125 73.78414062 51.005625 73.76953125 51.78125 C74.02582722 54.24864173 74.77154847 55.86356256 76 58 C79.00148136 57.67841271 79.98205792 57.01846979 82.125 54.8125 C86.32431287 48.5135307 86.51899615 42.38664292 86 35 C85.67 34.34 85.34 33.68 85 33 C83.02 33 81.04 33 79 33 Z M-35.625 58 C-36.85089844 58.556875 -36.85089844 58.556875 -38.1015625 59.125 C-38.72804688 59.41375 -39.35453125 59.7025 -40 60 C-40 62.31 -40 64.62 -40 67 C-36.37 67.66 -32.74 68.32 -29 69 C-29 64.71 -29 60.42 -29 56 C-31.60526888 56 -33.26036729 56.91902505 -35.625 58 Z M-31.25 95.4375 C-40.72992587 99.00940064 -51.12488742 98.15654472 -61 97 C-59.0518844 99.70817585 -57.04302996 102.36271292 -55 105 C-54.04287109 106.2375 -54.04287109 106.2375 -53.06640625 107.5 C-52.07447266 108.7065625 -52.07447266 108.7065625 -51.0625 109.9375 C-50.45535156 110.68902344 -49.84820312 111.44054687 -49.22265625 112.21484375 C-43.96004226 116.44158293 -36.99296471 114.93778206 -30.69335938 114.265625 C-29.57767578 114.13671875 -28.46199219 114.0078125 -27.3125 113.875 C-26.18521484 113.76929687 -25.05792969 113.66359375 -23.89648438 113.5546875 C-17.43375228 112.93922617 -17.43375228 112.93922617 -12.23046875 109.3828125 C-11.82441406 108.59648438 -11.41835937 107.81015625 -11 107 C-12.216875 106.5875 -13.43375 106.175 -14.6875 105.75 C-19.86443442 103.78349664 -23.06006978 101.68539211 -25.8125 96.75 C-26.4003125 95.38875 -26.4003125 95.38875 -27 94 C-28.43986365 93.93258233 -28.43986365 93.93258233 -31.25 95.4375 Z M14 130 C13.76731085 136.28260706 14.59545452 141.88019467 16 148 C16.33 148 16.66 148 17 148 C17.495 139.09 17.495 139.09 18 130 C16.68 130 15.36 130 14 130 Z M-20 148 C-20.33 148.33 -20.66 148.66 -21 149 C-20.62164326 154.01322676 -20.10895188 155.85473083 -17 160 C-17.66 156.04 -18.32 152.08 -19 148 C-19.33 148 -19.66 148 -20 148 Z M57.9375 159 C57.01839844 159.37125 56.09929687 159.7425 55.15234375 160.125 C54.44207031 160.41375 53.73179687 160.7025 53 161 C53 163.64 53 166.28 53 169 C57.95 169.99 57.95 169.99 63 171 C63.33 166.38 63.66 161.76 64 157 C61.92116831 157 59.82714305 158.23457497 57.9375 159 Z " fill="#FAFDFC" transform="translate(232,7)"/>
<path d="M0 0 C7.30765218 3.14366924 12.48511438 9.44972352 17.6171875 15.29296875 C18.40351563 16.18628906 19.18984375 17.07960938 20 18 C20.48339844 18.62003906 20.96679688 19.24007812 21.46484375 19.87890625 C23.87773377 21.64099133 25.77625963 21.08605284 28.6875 20.75 C34.06362642 20.19782449 39.41857439 19.7536894 44.8125 19.4375 C46.19402241 19.3530606 47.57553388 19.26844189 48.95703125 19.18359375 C49.96121094 19.12300781 50.96539062 19.06242187 52 19 C51.7178711 21.27203802 51.42397144 23.54261684 51.125 25.8125 C50.96257812 27.07707031 50.80015625 28.34164062 50.6328125 29.64453125 C50 33 50 33 48 36 C47.53132777 40.04672867 47.62963923 44.11657481 47.625 48.1875 C47.58826172 49.85522461 47.58826172 49.85522461 47.55078125 51.55664062 C47.52564659 58.63204846 48.49616874 62.88560671 52 69 C52 70.32 52 71.64 52 73 C51.34 73.474375 50.68 73.94875 50 74.4375 C47.73103521 75.83258774 47.73103521 75.83258774 47.6875 78.4375 C47.96437615 80.70788444 48.35087452 82.8092015 49 85 C47.02 85 45.04 85 43 85 C43.99 89.455 43.99 89.455 45 94 C43.10399631 93.68853528 41.20820413 93.37578283 39.3125 93.0625 C38.25675781 92.88847656 37.20101562 92.71445313 36.11328125 92.53515625 C34.18682585 92.20400896 32.26375256 91.85144934 30.34765625 91.46484375 C26.78575141 90.75957474 23.55604518 90.175706 20 91 C17.98422184 92.48322541 16.45390982 94.11461573 14.796875 95.98828125 C12.90866319 98.10225751 10.90235327 99.90793123 8.75 101.75 C6.90263971 103.3313404 5.12166767 104.87095854 3.453125 106.640625 C1.0829185 108.85791495 -1.21001241 109.02333471 -4.375 109.375 C-8 109 -8 109 -10.8125 106.9375 C-15.59028208 100.52162121 -15.53962162 92.79237353 -16.125 85.0625 C-16.21136719 83.99708984 -16.29773438 82.93167969 -16.38671875 81.83398438 C-16.59746345 79.22309173 -16.80171135 76.61186316 -17 74 C-17.73661865 73.71552002 -18.4732373 73.43104004 -19.23217773 73.13793945 C-23.34119466 71.44859237 -27.17009046 69.32062839 -31.0625 67.1875 C-31.86494141 66.76146484 -32.66738281 66.33542969 -33.49414062 65.89648438 C-37.89101342 63.48458984 -41.34710938 61.41446613 -44 57 C-44.56640625 54.71875 -44.56640625 54.71875 -44.5625 52.5 C-44.58441406 51.7678125 -44.60632813 51.035625 -44.62890625 50.28125 C-43.68205163 46.84669659 -41.83093848 45.00003165 -39 43 C-34.37748517 40.62886306 -29.55837468 38.71305667 -24.75195312 36.75 C-23.78837891 36.3375 -22.82480469 35.925 -21.83203125 35.5 C-20.51295776 34.95859375 -20.51295776 34.95859375 -19.16723633 34.40625 C-15.66157368 32.13153818 -15.27242816 29.21567642 -14.39331055 25.29272461 C-14.14254761 23.86198608 -14.14254761 23.86198608 -13.88671875 22.40234375 C-13.69013672 21.35369141 -13.49355469 20.30503906 -13.29101562 19.22460938 C-12.88835416 17.03147267 -12.49773678 14.83609077 -12.11914062 12.63867188 C-10.59962123 4.69906091 -10.59962123 4.69906091 -7.64453125 1.25390625 C-4.72187398 -0.13187364 -3.18482214 -0.50875753 0 0 Z " fill="#FBC80A" transform="translate(164,100)"/>
<path d="M0 0 C2.125 1.625 2.125 1.625 4.125 3.625 C5.69240178 15.41696454 2.95917282 27.57325972 1.09765625 39.171875 C0.17956562 44.97455585 -0.4335895 50.76802058 -0.875 56.625 C-0.09487549 56.46491455 0.68524902 56.3048291 1.48901367 56.13989258 C9.15151398 54.64316079 14.45179803 55.64028228 21.125 59.625 C22.115 60.12 22.115 60.12 23.125 60.625 C23.2794458 60.0487085 23.4338916 59.47241699 23.59301758 58.87866211 C36.59632358 11.28121254 36.59632358 11.28121254 53.125 0.625 C56.82783789 0.06152467 58.73989668 0.44047133 62.125 2.0625 C73.05260961 11.39649987 75.71154862 26.18489288 78.66748047 39.61889648 C79.58041773 43.66731069 80.70586409 47.36898558 82.375 51.1875 C84.28733323 55.64202224 84.79208574 58.78862837 84.125 63.625 C81.91759319 66.59358157 80.63902627 67.45365791 77.125 68.625 C73.36999254 69.12566766 69.74350375 69.41717905 66.2734375 67.71875 C62.61918552 64.91055636 61.15138814 62.03846899 60.125 57.625 C56.165 57.625 52.205 57.625 48.125 57.625 C47.76148438 59.05392578 47.76148438 59.05392578 47.390625 60.51171875 C47.05546875 61.76597656 46.7203125 63.02023438 46.375 64.3125 C46.05015625 65.55386719 45.7253125 66.79523438 45.390625 68.07421875 C43.90976353 72.22885788 42.17985115 75.59757442 38.125 77.625 C32.68018893 78.23874682 28.50911467 78.64924485 24 75.3125 C22.125 72.625 22.125 72.625 21.125 69.625 C20.09375 70.264375 19.0625 70.90375 18 71.5625 C9.43441064 76.8731654 -5.62532788 75.6906727 -15.25 73.875 C-19.63231387 72.36385729 -21.81249819 70.75000363 -23.875 66.625 C-24.8703058 52.70703522 -22.92667754 39.21116835 -20.84765625 25.47265625 C-20.02480794 20.02239216 -19.50792252 14.61207565 -19.19824219 9.10961914 C-18.61573727 4.63216252 -16.67853546 2.04206358 -13.125 -0.75 C-8.38286274 -2.06726035 -4.38719827 -2.09822526 0 0 Z " fill="#04A08A" transform="translate(372.875,15.375)"/>
<path d="M0 0 C6.6053377 4.67715234 10.04675841 11.24753226 12 19 C13.76427446 32.02187411 11.55194382 45.24545381 3.6953125 56.00390625 C-2.36599773 63.14061023 -9.60561959 68.55158688 -19 70 C-29.86592635 70.75751029 -38.92161266 70.14725065 -47.8125 63.3125 C-54.40633532 57.13855514 -57.57257433 48.86947036 -58.21875 39.99609375 C-58.59057629 26.87372439 -55.25132118 16.01367743 -46.4375 6.125 C-45.2309375 5.073125 -45.2309375 5.073125 -44 4 C-43.236875 3.29875 -42.47375 2.5975 -41.6875 1.875 C-38.31769121 -0.47602939 -34.90428299 -1.78136694 -31 -3 C-30.42636719 -3.185625 -29.85273438 -3.37125 -29.26171875 -3.5625 C-19.75671228 -5.40111956 -8.33432638 -5.25800252 0 0 Z M-24 21 C-24.6509259 22.24735567 -25.29551669 23.49801832 -25.9375 24.75 C-26.47697266 25.79414062 -26.47697266 25.79414062 -27.02734375 26.859375 C-28.64772307 30.42551102 -29.15408026 33.59657491 -29.1875 37.5 C-29.20167969 38.2528125 -29.21585937 39.005625 -29.23046875 39.78125 C-28.97417278 42.24864173 -28.22845153 43.86356256 -27 46 C-23.99851864 45.67841271 -23.01794208 45.01846979 -20.875 42.8125 C-16.67568713 36.5135307 -16.48100385 30.38664292 -17 23 C-17.33 22.34 -17.66 21.68 -18 21 C-19.98 21 -21.96 21 -24 21 Z " fill="#03A08A" transform="translate(335,19)"/>
<path d="M0 0 C3.21274599 0.44447012 5.18026779 1.17592736 7.59765625 3.359375 C9.28600916 6.19412179 9.87111475 8.40673995 10.01171875 11.6875 C10.05039063 12.48671875 10.0890625 13.2859375 10.12890625 14.109375 C10.15984375 14.934375 10.19078125 15.759375 10.22265625 16.609375 C10.26132813 17.44984375 10.3 18.2903125 10.33984375 19.15625 C10.43381461 21.22360882 10.51681189 23.29146127 10.59765625 25.359375 C11.27570313 24.64652344 11.95375 23.93367188 12.65234375 23.19921875 C30.0709827 5.16580431 30.0709827 5.16580431 41.09765625 3.984375 C44.94927316 4.39704824 47.32821602 5.30647067 50.59765625 7.359375 C52.59765625 10.359375 52.59765625 10.359375 52.78515625 13.609375 C51.02109583 19.18009212 47.26874929 21.11634203 42.59765625 24.359375 C35.19081043 29.8559109 28.06622357 35.86627424 22.59765625 43.359375 C22.15030091 47.22115639 22.15030091 47.22115639 24.03125 48.94335938 C24.69253906 49.44158203 25.35382813 49.93980469 26.03515625 50.453125 C26.76605469 51.00871094 27.49695313 51.56429687 28.25 52.13671875 C29.02472656 52.70519531 29.79945313 53.27367187 30.59765625 53.859375 C31.34144531 54.42785156 32.08523437 54.99632812 32.8515625 55.58203125 C36.45317665 58.28167594 39.96539427 60.64259625 44.03515625 62.578125 C47.59765625 64.359375 47.59765625 64.359375 49.59765625 67.359375 C49.45444631 71.29764828 49.18894981 73.61040316 46.72265625 76.734375 C43.65947684 79.07680631 40.6477568 79.84280695 36.80078125 79.75390625 C26.44235582 77.89893999 18.16974517 70.15277392 10.59765625 63.359375 C10.45452224 71.88373957 10.45452224 71.88373957 10.9609375 80.38671875 C11.08855469 81.69769531 11.21617187 83.00867188 11.34765625 84.359375 C11.486875 85.57625 11.62609375 86.793125 11.76953125 88.046875 C11.55773879 92.12869337 10.50421157 93.55588902 7.59765625 96.359375 C3.87113852 97.60154758 0.46823551 97.8935003 -3.40234375 97.359375 C-7.47338109 95.24846675 -9.72050543 93.59697111 -11.40234375 89.359375 C-13.47712886 78.99520607 -13.74040045 68.51359372 -13.7734375 57.9765625 C-13.78243548 56.46298145 -13.79155771 54.94940113 -13.80079651 53.43582153 C-13.81710498 50.29801289 -13.82495587 47.16030882 -13.82788086 44.02246094 C-13.83331948 40.00865334 -13.87129787 35.995826 -13.91662502 31.9822979 C-13.94635517 28.87157551 -13.95360313 25.76109397 -13.95460701 22.65024185 C-13.95879899 21.16946937 -13.9711923 19.68869549 -13.99212456 18.20806503 C-14.01902602 16.14560756 -14.01422689 14.08549326 -14.00170898 12.02294922 C-14.00677963 10.85351776 -14.01185028 9.6840863 -14.01707458 8.47921753 C-12.45685881 0.56091045 -6.95760406 -0.33711137 0 0 Z " fill="#03A08A" transform="translate(222.40234375,10.640625)"/>
<path d="M0 0 C2.5625 2.0625 2.5625 2.0625 3.5625 3.0625 C3.65017112 5.13512076 3.66945873 7.21070294 3.66015625 9.28515625 C3.65693359 10.54521484 3.65371094 11.80527344 3.65039062 13.10351562 C3.64203403 14.44401109 3.63356907 15.78450588 3.625 17.125 C3.6199866 18.46939942 3.61542342 19.8138006 3.61132812 21.15820312 C3.59949488 24.45967941 3.58300971 27.76106803 3.5625 31.0625 C4.91214844 30.81693359 4.91214844 30.81693359 6.2890625 30.56640625 C10.13609835 29.97420145 13.67731548 29.99551406 17.5625 30.0625 C17.53631592 29.33135986 17.51013184 28.60021973 17.4831543 27.84692383 C17.37899856 24.52316918 17.31411379 21.19975806 17.25 17.875 C17.20810547 16.72451172 17.16621094 15.57402344 17.12304688 14.38867188 C17.00027786 5.91761017 17.00027786 5.91761017 19.70703125 1.80078125 C22.95055241 -0.1737289 24.78469668 -0.61068627 28.5625 -0.5625 C29.573125 -0.57539063 30.58375 -0.58828125 31.625 -0.6015625 C35.62240967 0.30210724 36.99329137 1.90207313 39.5625 5.0625 C40.22192383 8.3828125 40.22192383 8.3828125 40.26953125 12.1875 C40.28487915 12.87926331 40.30022705 13.57102661 40.31604004 14.28375244 C40.35992743 16.54370139 40.36848356 18.80215887 40.375 21.0625 C40.3950231 22.62990553 40.41676948 24.19728993 40.44018555 25.76464844 C40.48351012 28.96489027 40.511193 32.16474411 40.52734375 35.36523438 C40.54876001 39.08822129 40.61347237 42.80822624 40.70259094 46.53015137 C40.77806888 49.79064267 40.82494502 53.05153437 40.875 56.3125 C40.9200769 58.09333984 40.9200769 58.09333984 40.96606445 59.91015625 C41.00988527 66.52854442 40.62071404 70.72863413 36.5625 76.0625 C32.71409412 78.4547523 29.01594955 78.53128416 24.5625 78.0625 C19.02403846 74.98557692 19.02403846 74.98557692 17.5625 72.0625 C17.47778636 70.24908158 17.45528917 68.43255839 17.46484375 66.6171875 C17.46806641 65.54082031 17.47128906 64.46445313 17.47460938 63.35546875 C17.48717773 61.66357422 17.48717773 61.66357422 17.5 59.9375 C17.50451172 58.80183594 17.50902344 57.66617188 17.51367188 56.49609375 C17.52548372 53.68487353 17.54341959 50.87368028 17.5625 48.0625 C12.6125 48.0625 7.6625 48.0625 2.5625 48.0625 C2.58570313 50.32609375 2.60890625 52.5896875 2.6328125 54.921875 C2.64841969 57.11946045 2.66055834 59.31703967 2.67236328 61.51464844 C2.68240744 63.03941623 2.69604531 64.56416484 2.71337891 66.08886719 C2.73769738 68.28325138 2.74899889 70.47738042 2.7578125 72.671875 C2.76828613 73.99155273 2.77875977 75.31123047 2.78955078 76.67089844 C2.57807119 79.82990324 2.356919 81.50467587 0.5625 84.0625 C-3.82570698 86.9199371 -7.24211822 87.71192272 -12.4375 87.0625 C-15.78616281 85.35657744 -17.86770512 84.18098625 -19.59106445 80.7980957 C-20.54547382 77.71353931 -20.68048202 75.20815516 -20.66796875 71.98046875 C-20.66700195 70.7569873 -20.66603516 69.53350586 -20.66503906 68.27294922 C-20.65256472 66.93195775 -20.63919275 65.59097438 -20.625 64.25 C-20.61536476 62.85433076 -20.60592921 61.45866013 -20.59667969 60.06298828 C-20.56658845 56.2312632 -20.51815331 52.39992036 -20.46746826 48.56842041 C-20.43626084 45.95888263 -20.41469515 43.34939508 -20.39501953 40.73974609 C-20.3592003 36.19633909 -20.30066915 31.65369348 -20.22695923 27.11074829 C-20.2007636 25.33607038 -20.18083277 23.56128836 -20.16732788 21.78646851 C-20.14602297 19.28141714 -20.09950211 16.77800157 -20.046875 14.2734375 C-20.04563126 13.53095261 -20.04438751 12.78846771 -20.04310608 12.02348328 C-19.8993532 6.92953234 -18.61538841 4.00976404 -15.4375 0.0625 C-10.72552319 -3.63976749 -4.83788076 -2.72680552 0 0 Z " fill="#04A08A" transform="translate(479.4375,14.9375)"/>
<path d="M0 0 C3.00197464 1.80118478 4.45166366 2.90332732 6 6 C6.40781011 14.70794527 5.84520693 23.33662896 5 32 C9.62 32 14.24 32 19 32 C18.94199219 30.25332031 18.88398438 28.50664062 18.82421875 26.70703125 C18.77731772 24.40888089 18.73181794 22.11070163 18.6875 19.8125 C18.64560547 18.66201172 18.60371094 17.51152344 18.56054688 16.32617188 C18.43972968 7.98978522 18.43972968 7.98978522 20.06494141 5.11865234 C23.21180114 1.9070757 25.94939396 0.83799542 30.3125 0.75 C34.3460816 0.80187886 36.83706906 1.31630102 40 4 C42.19816233 7.3983887 42.25811673 10.25389552 42.2746582 14.24975586 C42.28895622 16.14708717 42.28895622 16.14708717 42.30354309 18.08274841 C42.30328165 19.46011381 42.30234455 20.83747922 42.30078125 22.21484375 C42.30467005 23.63204575 42.30900511 25.04924659 42.31376648 26.46644592 C42.32122141 29.43461894 42.32094274 32.402673 42.31567383 35.37084961 C42.30988009 39.16838936 42.32681086 42.96544124 42.3500185 46.76290035 C42.36477373 49.68920218 42.36562514 52.61538699 42.36250877 55.54171944 C42.36302109 56.94151335 42.36824203 58.34131397 42.37832069 59.7410717 C42.390701 61.70095959 42.38194178 63.66094626 42.37231445 65.62084961 C42.37294388 66.73463486 42.3735733 67.8484201 42.3742218 68.99595642 C41.9519473 72.38574025 41.00410342 74.260109 39 77 C34.96974008 79.72804915 30.69677283 79.54516113 26 79 C23.07831088 77.75672804 21.57236959 76.90748235 19.88330078 74.22949219 C18.81598855 71.53554655 18.77252999 69.47230104 18.8046875 66.578125 C18.81113281 65.55332031 18.81757813 64.52851563 18.82421875 63.47265625 C18.84097656 62.40917969 18.85773438 61.34570312 18.875 60.25 C18.88402344 59.17105469 18.89304687 58.09210938 18.90234375 56.98046875 C18.92588695 54.32008722 18.95877201 51.66015664 19 49 C17.7934375 49.2475 17.7934375 49.2475 16.5625 49.5 C12.34112648 50.09247348 8.25335455 50.08506709 4 50 C4.04713135 51.46022583 4.04713135 51.46022583 4.09521484 52.94995117 C4.20411714 56.57444947 4.27280288 60.19880446 4.32958984 63.82446289 C4.35969601 65.39111679 4.4005923 66.95760303 4.45263672 68.52368164 C4.52573887 70.78053143 4.55951301 73.03514796 4.5859375 75.29296875 C4.61690521 75.98899704 4.64787292 76.68502533 4.67977905 77.40214539 C4.6816966 80.19608262 4.52340287 82.36175083 2.71565247 84.56616211 C-1.46412401 88.17836315 -4.33495598 88.75234016 -9.65625 88.50390625 C-13.21536321 87.73869691 -14.85643323 85.83503993 -17 83 C-17.33 82.67 -17.66 82.34 -18 82 C-18.09814341 80.63908283 -18.127983 79.27314209 -18.12939453 77.90869141 C-18.13248627 77.03404236 -18.135578 76.15939331 -18.13876343 75.25823975 C-18.13679962 74.29903625 -18.13483582 73.33983276 -18.1328125 72.3515625 C-18.13431305 71.35948792 -18.1358136 70.36741333 -18.13735962 69.34527588 C-18.13972532 66.10514351 -18.13345161 62.86512136 -18.125 59.625 C-18.12278442 58.53253967 -18.12056885 57.44007935 -18.11828613 56.31451416 C-18.1004559 48.8761528 -18.05915339 41.43814283 -18 34 C-17.9937561 33.16750732 -17.98751221 32.33501465 -17.9810791 31.47729492 C-17.94327948 26.9418221 -17.8643548 22.40933124 -17.75 17.875 C-17.73598145 16.82521973 -17.72196289 15.77543945 -17.70751953 14.69384766 C-17.51008008 8.88166248 -16.86827589 5.43542912 -13 1 C-9.0649579 -0.96752105 -4.2894478 -0.46422595 0 0 Z " fill="#03A08A" transform="translate(320,115)"/>
<path d="M0 0 C8.00714055 3.53803885 10.95287206 11.32154908 14 19 C15.78958417 24.39011805 17.21949602 29.89071168 18.6875 35.375 C19.2725417 37.53296049 19.86023837 39.69015422 20.45088196 41.84658813 C20.98102934 43.78615875 21.50380424 45.72774014 22.02612305 47.66943359 C22.86641018 50.54313555 23.8900417 53.22555632 25 56 C25.45223306 59.69323667 25.56193249 61.27751537 23.25 64.25 C18.76744735 67.73642984 15.79716082 68.59970629 10 68 C4.15966189 65.2516056 2.46270411 61.68316332 0 56 C-3.96 56 -7.92 56 -12 56 C-12.18175781 56.88042969 -12.36351562 57.76085937 -12.55078125 58.66796875 C-12.80214844 59.82941406 -13.05351562 60.99085938 -13.3125 62.1875 C-13.55613281 63.33605469 -13.79976563 64.48460937 -14.05078125 65.66796875 C-15.2029048 69.71225431 -16.82609015 72.69063902 -19.625 75.8125 C-23.36226914 77.68113457 -26.91034657 77.65802382 -31 77 C-36.46341463 74.07317073 -36.46341463 74.07317073 -38 71 C-38.01671377 63.18287055 -35.75857329 55.82516654 -33.4375 48.4375 C-32.90177368 46.72385254 -32.90177368 46.72385254 -32.35522461 44.97558594 C-17.21197872 -2.15149734 -17.21197872 -2.15149734 0 0 Z " fill="#04A08A" transform="translate(402,118)"/>
<path d="M0 0 C0.8250856 -0.00960754 1.6501712 -0.01921509 2.5002594 -0.02911377 C3.38567917 -0.03336365 4.27109894 -0.03761353 5.18334961 -0.04199219 C6.10603134 -0.04769226 7.02871307 -0.05339233 7.97935486 -0.05926514 C9.93365334 -0.06870554 11.88796768 -0.07524531 13.84228516 -0.07910156 C16.80066628 -0.08875292 19.75833616 -0.11976284 22.71655273 -0.15136719 C45.08510725 -0.27884728 45.08510725 -0.27884728 51.55957031 4.47192383 C53.98851988 6.96407875 54.7535369 8.83352524 54.96069336 12.28613281 C53.37594651 16.12288834 51.37490785 17.21620699 47.77319336 19.16113281 C44.35086364 20.30190939 41.68646118 20.25928398 38.08569336 20.22363281 C36.31645508 20.21009766 36.31645508 20.21009766 34.51147461 20.19628906 C33.6078418 20.1846875 32.70420898 20.17308594 31.77319336 20.16113281 C31.78207581 20.97688278 31.79095825 21.79263275 31.80010986 22.63310242 C31.88032246 30.32805502 31.94119131 38.02280436 31.98044205 45.71806622 C32.00129987 49.67412364 32.02958372 53.62983506 32.07495117 57.58569336 C32.11847457 61.40474145 32.14234405 65.22345715 32.15270233 69.04273415 C32.16008216 70.49839319 32.17449356 71.95403443 32.19611359 73.40955162 C32.22523612 75.45173548 32.229146 77.49255335 32.22729492 79.53491211 C32.23617737 80.69629196 32.24505981 81.85767181 32.25421143 83.054245 C31.67122095 86.81977094 30.40778579 88.46152115 27.77319336 91.16113281 C23.81671948 93.13936975 19.07495156 92.72601015 14.77319336 92.16113281 C11.36007669 89.63542648 10.10681568 88.16199977 8.77319336 84.16113281 C8.68376883 82.02961554 8.65560437 79.8953513 8.65966797 77.76196289 C8.65952194 77.11778915 8.65937592 76.47361542 8.65922546 75.80992126 C8.65992141 73.68346779 8.66769888 71.55710221 8.67553711 69.43066406 C8.67740242 67.95521594 8.67882579 66.4797672 8.67982483 65.00431824 C8.6836411 61.12287686 8.6934638 57.24147297 8.70452881 53.36004639 C8.71476205 49.39856473 8.71932655 45.43707701 8.72436523 41.47558594 C8.73508686 33.70408449 8.75215261 25.9326139 8.77319336 18.16113281 C7.75999023 18.1959375 6.74678711 18.23074219 5.70288086 18.26660156 C4.35133506 18.29475877 2.99977117 18.32205684 1.64819336 18.34863281 C0.98303711 18.37376953 0.31788086 18.39890625 -0.36743164 18.42480469 C-5.08860067 18.49423364 -8.23191282 17.66856617 -12.22680664 15.16113281 C-13.83174088 11.95126433 -13.845614 8.63332967 -13.22680664 5.16113281 C-9.34018006 0.95062068 -5.5386503 0.05239175 0 0 Z " fill="#05A08B" transform="translate(440.226806640625,110.8388671875)"/>
<path d="M0 0 C2.00806014 -0.0043564 4.01596269 -0.04134248 6.02368164 -0.07861328 C7.29920898 -0.08248047 8.57473633 -0.08634766 9.88891602 -0.09033203 C11.05334229 -0.0985498 12.21776855 -0.10676758 13.41748047 -0.11523438 C17.43028794 0.47632699 19.56664073 1.85352411 22.71313477 4.37060547 C24.71313477 7.37060547 24.71313477 7.37060547 24.65063477 10.30810547 C23.48280071 14.12303005 22.02615526 15.24080658 18.71313477 17.37060547 C14.07610766 18.91628117 9.58841826 18.42796175 4.71313477 18.37060547 C4.71313477 22.00060547 4.71313477 25.63060547 4.71313477 29.37060547 C6.36313477 28.71060547 8.01313477 28.05060547 9.71313477 27.37060547 C15.43383365 26.74652923 18.21341792 27.83511366 22.71313477 31.37060547 C23.71313477 32.37060547 23.71313477 32.37060547 24.08813477 35.62060547 C23.71313477 39.37060547 23.71313477 39.37060547 21.71313477 42.05810547 C16.03726131 46.43325792 10.86098945 48.77495091 3.71313477 49.37060547 C3.78532227 49.98806641 3.85750977 50.60552734 3.93188477 51.24169922 C4.56202067 56.99168933 4.80641758 62.58707105 4.71313477 68.37060547 C5.44918945 68.33580078 6.18524414 68.30099609 6.94360352 68.26513672 C16.68815075 67.99481242 16.68815075 67.99481242 20.71313477 71.37060547 C22.71313477 73.37060547 22.71313477 73.37060547 23.08813477 76.18310547 C22.61548152 80.20065809 21.67655456 81.63514105 18.71313477 84.37060547 C13.31791201 86.32816417 8.42109693 86.70704826 2.71313477 86.68310547 C1.94485352 86.69921875 1.17657227 86.71533203 0.38500977 86.73193359 C-4.91353373 86.73643916 -8.62735327 85.95081022 -13.28686523 83.37060547 C-20.12232185 76.04337042 -18.59503259 62.26089546 -18.58764648 52.87841797 C-18.59193161 51.64823944 -18.59621674 50.41806091 -18.60063171 49.15060425 C-18.6063304 46.57420463 -18.60690859 43.99778893 -18.60253906 41.42138672 C-18.59935659 37.48491279 -18.62297269 33.54917557 -18.64819336 29.61279297 C-18.65046459 27.09716891 -18.65117067 24.58154284 -18.65014648 22.06591797 C-18.65935623 20.89602325 -18.66856598 19.72612854 -18.67805481 18.52078247 C-18.64332704 12.39516275 -18.42543127 7.70879126 -15.28686523 2.37060547 C-10.57140039 -0.77303776 -5.54992929 -0.00134986 0 0 Z " fill="#04A08A" transform="translate(181.286865234375,12.62939453125)"/>
<path d="M0 0 C1.07399048 0.00326294 1.07399048 0.00326294 2.16967773 0.0065918 C4.34280133 0.0097388 6.51454613 -0.01365505 8.6875 -0.0390625 C10.07486808 -0.04133692 11.46223981 -0.04203832 12.84960938 -0.04101562 C14.10942627 -0.04399658 15.36924316 -0.04697754 16.66723633 -0.05004883 C20.28621426 0.34840192 22.16922166 1.13818413 25.04882812 3.32226562 C26.59469688 6.41400314 26.34242334 8.91656115 26.04882812 12.32226562 C24.18174308 14.68724002 22.72821382 15.98257278 20.04882812 17.32226562 C17.84153582 17.39319404 15.6321536 17.40641587 13.42382812 17.38476562 C12.2353125 17.37574219 11.04679687 17.36671875 9.82226562 17.35742188 C8.90703125 17.34582031 7.99179687 17.33421875 7.04882812 17.32226562 C7.37882812 20.95226562 7.70882813 24.58226562 8.04882812 28.32226562 C8.70882813 27.99226563 9.36882812 27.66226563 10.04882812 27.32226562 C14.72187773 26.89217964 18.79233919 26.75812773 23.11132812 28.69726562 C25.84515664 30.99015406 26.01171323 32.04125287 26.48632812 35.63476562 C26.04882812 39.32226562 26.04882812 39.32226562 23.67382812 42.00976562 C18.47145051 45.75052287 12.4526497 48.32226562 6.04882812 48.32226562 C6.37882812 54.59226563 6.70882813 60.86226562 7.04882812 67.32226562 C8.57507813 67.26039063 10.10132813 67.19851562 11.67382812 67.13476562 C16.21052128 67.13476562 19.20690775 67.72896937 23.04882812 70.32226562 C25.37632157 73.8135058 25.55182129 75.21448813 25.04882812 79.32226562 C22.76795717 82.25481399 20.44887296 83.90231625 17.04882812 85.32226562 C13.289387 85.76728054 9.51947971 85.69253964 5.73632812 85.69726562 C4.20588867 85.73400391 4.20588867 85.73400391 2.64453125 85.77148438 C-3.77096526 85.79636671 -7.76961364 85.20666222 -12.95117188 81.32226562 C-17.3377529 72.94788367 -16.12181337 61.01661783 -16.15429688 51.83398438 C-16.15999695 50.57262161 -16.16569702 49.31125885 -16.17156982 48.01167297 C-16.18096683 45.36183067 -16.18789266 42.7121002 -16.19140625 40.06225586 C-16.1969278 36.67519211 -16.22107131 33.28852285 -16.2493782 29.90158367 C-16.27249071 26.64991416 -16.27444954 23.39822453 -16.27929688 20.14648438 C-16.29164368 18.93498215 -16.30399048 17.72347992 -16.31671143 16.4752655 C-16.31371033 15.34671646 -16.31070923 14.21816742 -16.30761719 13.05541992 C-16.31126282 12.06632126 -16.31490845 11.0772226 -16.31866455 10.05815125 C-14.96424053 -0.02517681 -8.46172308 0.03408703 0 0 Z " fill="#03A08A" transform="translate(271.951171875,114.677734375)"/>
<path d="M0 0 C3.93322734 3.19574722 3.93322734 3.19574722 4.4375 6.4375 C3.84872387 10.72715464 2.370905 11.98690044 -1 14.625 C-2.98014432 15.34851427 -4.97821315 16.02765389 -7 16.625 C-10.9468467 24.51869339 -6.59145695 36.23354049 -4.77734375 44.25976562 C-2.78557305 53.50727244 -0.76582639 64.07584978 -6 72.625 C-9.42519515 76.37774113 -12.79335461 78.44528656 -17.92578125 78.86328125 C-29.24965188 79.11143989 -29.24965188 79.11143989 -34 74.625 C-35.462958 71.699084 -35.44523109 69.86882653 -35 66.625 C-33.18259509 64.41075668 -31.43928456 63.25118971 -29 61.625 C-28.01 61.625 -27.02 61.625 -26 61.625 C-26.25108691 55.81233802 -26.99822626 50.36439736 -28.50317383 44.73413086 C-31.40425557 33.79460874 -34.28174763 19.72791711 -28.8125 9.1875 C-22.45824402 0.22409422 -10.49676702 -4.81101822 0 0 Z " fill="#03A08A" transform="translate(155,14.375)"/>
<path d="M0 0 C0.72058594 -0.02900391 1.44117188 -0.05800781 2.18359375 -0.08789062 C5.67573199 -0.12969338 7.72360274 0.02524414 10.59765625 2.08203125 C12.64567547 5.07287262 12.76472506 6.87984208 12.57421875 10.4140625 C12.125 12.3125 12.125 12.3125 10 14.6875 C7.09162182 16.33136593 4.29876326 17.30146738 1.125 18.3125 C0.69290866 28.84272597 1.85930787 38.07258451 4.65942383 48.25610352 C5.43352522 51.67522047 5.35087844 55.13642003 5.375 58.625 C5.395625 59.35912109 5.41625 60.09324219 5.4375 60.84960938 C5.47468742 66.08838745 4.56789231 69.66104558 2.125 74.3125 C-2.38058274 78.81808274 -7.10325005 80.38296938 -13.375 80.625 C-17.51127454 80.52734765 -20.37047218 79.62035979 -23.875 77.3125 C-26.36336965 73.57994552 -26.41726552 71.72809065 -25.875 67.3125 C-23.625 64.875 -23.625 64.875 -20.875 63.3125 C-19.555 63.3125 -18.235 63.3125 -16.875 63.3125 C-17.71520678 57.77376847 -18.63082967 52.27083316 -19.8984375 46.8125 C-25.97554208 20.51884025 -25.97554208 20.51884025 -19.51171875 9.40625 C-14.15237817 2.55038711 -8.46002537 0.11230122 0 0 Z " fill="#03A08A" transform="translate(239.875,114.6875)"/>
<path d="M0 0 C7.30765218 3.14366924 12.48511438 9.44972352 17.6171875 15.29296875 C18.40351563 16.18628906 19.18984375 17.07960938 20 18 C20.48339844 18.62003906 20.96679688 19.24007812 21.46484375 19.87890625 C23.87773377 21.64099133 25.77625963 21.08605284 28.6875 20.75 C34.06362642 20.19782449 39.41857439 19.7536894 44.8125 19.4375 C46.19402241 19.3530606 47.57553388 19.26844189 48.95703125 19.18359375 C49.96121094 19.12300781 50.96539062 19.06242187 52 19 C51.505 20.485 51.505 20.485 51 22 C46.82051928 22.59859473 42.63968351 23.18621939 38.45727539 23.76391602 C37.03595913 23.96178395 35.61504929 24.16259523 34.19458008 24.36645508 C32.14765683 24.65969207 30.09948476 24.9421623 28.05078125 25.22265625 C26.82012939 25.39547119 25.58947754 25.56828613 24.3215332 25.74633789 C21.20677025 25.98420917 18.96984373 25.91839332 16 25 C13.60546875 22.84765625 13.60546875 22.84765625 11.1875 20.0625 C10.32125 19.07636719 9.455 18.09023437 8.5625 17.07421875 C5.51258716 13.47071021 2.66272151 9.71619401 -0.11328125 5.8984375 C-2.36644707 3.63127686 -3.86718932 3.31274186 -7 3 C-7.185625 4.8871875 -7.185625 4.8871875 -7.375 6.8125 C-9.07334526 22.07334526 -9.07334526 22.07334526 -11 24 C-10.95166016 25.10021484 -10.95166016 25.10021484 -10.90234375 26.22265625 C-10.94660158 29.7977052 -11.29103796 31.82319186 -13 35 C-17.70348588 38.38013669 -23.36608135 40.23037685 -28.77490234 42.18359375 C-32.60221116 43.58786418 -36.35262983 45.17631491 -40 47 C-40 49.31 -40 51.62 -40 54 C-38.91078247 54.42212769 -38.91078247 54.42212769 -37.79956055 54.8527832 C-33.32318592 56.68713259 -29.08844389 58.93202353 -24.8125 61.1875 C-23.89791016 61.64447266 -22.98332031 62.10144531 -22.04101562 62.57226562 C-15.39638046 66.10789806 -15.39638046 66.10789806 -13.42578125 70.54296875 C-13.28527344 71.68378906 -13.14476562 72.82460937 -13 74 C-12.86335938 74.86882812 -12.72671875 75.73765625 -12.5859375 76.6328125 C-11.98228428 83.76486352 -11.89761777 90.84461989 -12 98 C-11.01 98.33 -10.02 98.66 -9 99 C-9 99.66 -9 100.32 -9 101 C-5.18437605 99.70176525 -2.92909121 98.25033142 -0.1875 95.3125 C3.10628925 91.88172897 6.52026693 88.7224174 10.140625 85.640625 C12.09945953 83.99099352 12.09945953 83.99099352 13.90234375 81.76171875 C16 80 16 80 18.48828125 79.94140625 C19.42027344 80.14636719 20.35226563 80.35132813 21.3125 80.5625 C22.87677734 80.88541016 22.87677734 80.88541016 24.47265625 81.21484375 C25.63667969 81.47394531 26.80070312 81.73304688 28 82 C29.37291828 82.27604174 30.74665385 82.54804342 32.12109375 82.81640625 C35.75133011 83.52540015 39.37645342 84.25746996 43 85 C43.99 89.455 43.99 89.455 45 94 C43.10399631 93.68853528 41.20820413 93.37578283 39.3125 93.0625 C38.25675781 92.88847656 37.20101562 92.71445313 36.11328125 92.53515625 C34.18682585 92.20400896 32.26375256 91.85144934 30.34765625 91.46484375 C26.78575141 90.75957474 23.55604518 90.175706 20 91 C17.98422184 92.48322541 16.45390982 94.11461573 14.796875 95.98828125 C12.90866319 98.10225751 10.90235327 99.90793123 8.75 101.75 C6.90263971 103.3313404 5.12166767 104.87095854 3.453125 106.640625 C1.0829185 108.85791495 -1.21001241 109.02333471 -4.375 109.375 C-8 109 -8 109 -10.8125 106.9375 C-15.59028208 100.52162121 -15.53962162 92.79237353 -16.125 85.0625 C-16.21136719 83.99708984 -16.29773438 82.93167969 -16.38671875 81.83398438 C-16.59746345 79.22309173 -16.80171135 76.61186316 -17 74 C-17.73661865 73.71552002 -18.4732373 73.43104004 -19.23217773 73.13793945 C-23.34119466 71.44859237 -27.17009046 69.32062839 -31.0625 67.1875 C-31.86494141 66.76146484 -32.66738281 66.33542969 -33.49414062 65.89648438 C-37.89101342 63.48458984 -41.34710938 61.41446613 -44 57 C-44.56640625 54.71875 -44.56640625 54.71875 -44.5625 52.5 C-44.58441406 51.7678125 -44.60632813 51.035625 -44.62890625 50.28125 C-43.68205163 46.84669659 -41.83093848 45.00003165 -39 43 C-34.37748517 40.62886306 -29.55837468 38.71305667 -24.75195312 36.75 C-23.78837891 36.3375 -22.82480469 35.925 -21.83203125 35.5 C-20.51295776 34.95859375 -20.51295776 34.95859375 -19.16723633 34.40625 C-15.66157368 32.13153818 -15.27242816 29.21567642 -14.39331055 25.29272461 C-14.14254761 23.86198608 -14.14254761 23.86198608 -13.88671875 22.40234375 C-13.69013672 21.35369141 -13.49355469 20.30503906 -13.29101562 19.22460938 C-12.88835416 17.03147267 -12.49773678 14.83609077 -12.11914062 12.63867188 C-10.59962123 4.69906091 -10.59962123 4.69906091 -7.64453125 1.25390625 C-4.72187398 -0.13187364 -3.18482214 -0.50875753 0 0 Z " fill="#020200" transform="translate(164,100)"/>
<path d="M0 0 C2.8751291 0.57413569 3.79526581 1.17582783 5.5234375 3.50390625 C8.34727821 11.97542837 7.64128692 22.41912546 3.7734375 30.37890625 C1.81298635 33.93346161 0.0610193 36.4425334 -3.4765625 38.50390625 C-6.55235783 39.15372216 -9.39476625 39.12706358 -12.4765625 38.50390625 C-16.54296686 34.64082211 -17.62217844 31.61106042 -17.76879883 26.09521484 C-17.83820031 18.71858942 -17.57223415 12.8915266 -13.4765625 6.50390625 C-13.14914062 5.88644531 -12.82171875 5.26898438 -12.484375 4.6328125 C-9.30536443 -0.39095238 -5.37928755 -0.11053331 0 0 Z M-6.4765625 7.50390625 C-7.1274884 8.75126192 -7.77207919 10.00192457 -8.4140625 11.25390625 C-8.95353516 12.29804687 -8.95353516 12.29804687 -9.50390625 13.36328125 C-11.12428557 16.92941727 -11.63064276 20.10048116 -11.6640625 24.00390625 C-11.67824219 24.75671875 -11.69242187 25.50953125 -11.70703125 26.28515625 C-11.45073528 28.75254798 -10.70501403 30.36746881 -9.4765625 32.50390625 C-6.47508114 32.18231896 -5.49450458 31.52237604 -3.3515625 29.31640625 C0.84775037 23.01743695 1.04243365 16.89054917 0.5234375 9.50390625 C0.1934375 8.84390625 -0.1365625 8.18390625 -0.4765625 7.50390625 C-2.4565625 7.50390625 -4.4365625 7.50390625 -6.4765625 7.50390625 Z " fill="#F7FBFB" transform="translate(317.4765625,32.49609375)"/>
<path d="M0 0 C0 0.66 0 1.32 0 2 C-3.96 3.98 -3.96 3.98 -8 6 C-4.54319097 8.76544722 -0.85658398 10.84921278 3 13 C3 13.66 3 14.32 3 15 C4.09248047 15.17208984 4.09248047 15.17208984 5.20703125 15.34765625 C8.07368877 16.01721122 10.1413279 16.98069186 12.6875 18.4375 C13.45449219 18.86933594 14.22148437 19.30117187 15.01171875 19.74609375 C17 21 17 21 19 23 C19.41064453 25.3190918 19.41064453 25.3190918 19.6328125 28.19921875 C19.75849609 29.76639648 19.75849609 29.76639648 19.88671875 31.36523438 C19.96535156 32.46158203 20.04398438 33.55792969 20.125 34.6875 C20.21136719 35.76451172 20.29773438 36.84152344 20.38671875 37.95117188 C20.80110632 43.31518876 21.10774729 48.62033198 21 54 C26.13367583 51.34256781 29.98658861 47.45749723 34.125 43.5 C34.84042969 42.82324219 35.55585938 42.14648438 36.29296875 41.44921875 C40.00529283 37.96995715 40.00529283 37.96995715 43.53076172 34.30664062 C45 33 45 33 48.125 32.625 C51.26591464 32.92895948 52.9935946 33.28952759 55.8125 34.375 C63.16508094 37.08722829 71.25309442 37.28965806 79 38 C79.495 39.98 79.495 39.98 80 42 C72.89817111 42.28251315 66.53789881 41.52192386 59.625 39.9375 C57.88984394 39.54268172 56.15289554 39.15563949 54.4140625 38.77734375 C53.28411865 38.51812134 53.28411865 38.51812134 52.13134766 38.25366211 C49.76398375 37.97191055 48.2375905 38.20060798 46 39 C43.84063098 40.83299117 43.84063098 40.83299117 41.75 43.125 C38.21925667 46.78392213 34.59592932 50.19606021 30.7265625 53.4921875 C28.96869476 54.95837482 28.96869476 54.95837482 27.5234375 56.6953125 C26 58 26 58 22 58 C19.62912433 56.37905367 19.07768885 55.37422742 18.49169922 52.55151367 C18.39912842 51.12415894 18.39912842 51.12415894 18.3046875 49.66796875 C18.22863281 48.62189453 18.15257812 47.57582031 18.07421875 46.49804688 C18.00847656 45.40556641 17.94273437 44.31308594 17.875 43.1875 C17.72867699 41.03501147 17.58030134 38.8826613 17.4296875 36.73046875 C17.37022949 35.77551514 17.31077148 34.82056152 17.24951172 33.83666992 C17.16717285 32.90056885 17.08483398 31.96446777 17 31 C16.91476074 29.95134766 16.82952148 28.90269531 16.74169922 27.82226562 C16.25987918 24.91973596 16.25987918 24.91973596 14.12988281 23.35668945 C12.9286377 22.74120239 12.9286377 22.74120239 11.703125 22.11328125 C10.8265625 21.64986328 9.95 21.18644531 9.046875 20.70898438 C8.12390625 20.24814453 7.2009375 19.78730469 6.25 19.3125 C4.44248859 18.37151572 2.63519045 17.43012165 0.828125 16.48828125 C-0.78091724 15.65820882 -2.39024962 14.82869832 -4 14 C-7.08984375 12.3984375 -7.08984375 12.3984375 -9 11 C-9.8125 7.3125 -9.8125 7.3125 -10 4 C-4.5 0 -4.5 0 0 0 Z " fill="#CB9316" transform="translate(133,143)"/>
<path d="M0 0 C0.93199219 0.20496094 1.86398438 0.40992188 2.82421875 0.62109375 C3.86707031 0.83636719 4.90992188 1.05164063 5.984375 1.2734375 C7.73041016 1.66208984 7.73041016 1.66208984 9.51171875 2.05859375 C10.88463703 2.33463549 12.2583726 2.60663717 13.6328125 2.875 C17.26304886 3.5839939 20.88817217 4.31606371 24.51171875 5.05859375 C25.00671875 8.02859375 25.00671875 8.02859375 25.51171875 11.05859375 C23.61571506 10.74712903 21.71992288 10.43437658 19.82421875 10.12109375 C18.76847656 9.94707031 17.71273437 9.77304688 16.625 9.59375 C13.90892357 9.12687112 11.21256203 8.60508545 8.51171875 8.05859375 C3.92932653 7.2819171 1.86267422 7.10360799 -1.98046875 9.8203125 C-5.29381047 12.78620653 -8.4014183 15.89316239 -11.43359375 19.14453125 C-15.27029382 23.22210038 -17.83316966 25.31169222 -23.48828125 26.05859375 C-26.90413804 25.04306876 -27.44991946 24.11613644 -29.48828125 21.05859375 C-28.99328125 19.57359375 -28.99328125 19.57359375 -28.48828125 18.05859375 C-28.15828125 19.04859375 -27.82828125 20.03859375 -27.48828125 21.05859375 C-23.6726573 19.760359 -21.41737246 18.30892517 -18.67578125 15.37109375 C-15.381992 11.94032272 -11.96801432 8.78101115 -8.34765625 5.69921875 C-6.38882172 4.04958727 -6.38882172 4.04958727 -4.5859375 1.8203125 C-2.48828125 0.05859375 -2.48828125 0.05859375 0 0 Z " fill="#232017" transform="translate(182.48828125,179.94140625)"/>
<path d="M0 0 C2.32687878 4.65375757 3.00687392 6.94905641 2.75 12.25 C2.5357753 20.19416598 4.22748705 27.48985895 6.22167969 35.14550781 C7.69856563 40.94981703 8.24413205 46.00655823 8 52 C6.88625 52.350625 5.7725 52.70125 4.625 53.0625 C2.66818521 53.80330632 2.66818521 53.80330632 1 55 C-0.53045985 58.55892288 -0.53045985 58.55892288 -1 62 C-1.33 61.34 -1.66 60.68 -2 60 C-3.65 60 -5.3 60 -7 60 C-7.33 60.66 -7.66 61.32 -8 62 C-8 61.01 -8 60.02 -8 59 C-6.02 59 -4.04 59 -2 59 C-2.33 58.443125 -2.66 57.88625 -3 57.3125 C-4.16803602 54.61141671 -4.37367024 52.91462786 -4 50 C-2.625 48.1875 -2.625 48.1875 -1 47 C-0.34 47 0.32 47 1 47 C0.77280273 46.06486572 0.77280273 46.06486572 0.54101562 45.11083984 C-6.97154629 13.74878331 -6.97154629 13.74878331 -1 3 C-0.67 2.01 -0.34 1.02 0 0 Z " fill="#F3F5F3" transform="translate(215,126)"/>
<path d="M0 0 C2.87845727 2.87845727 2.37623202 5.1728306 2.5625 9.1875 C2.94170982 16.94969279 3.44612909 23.04677431 7 30 C7 31.32 7 32.64 7 34 C3.78571429 37 3.78571429 37 1 37 C-0.54684326 33.9708961 -2.05756792 30.92511494 -3.5625 27.875 C-4.00013672 27.0190625 -4.43777344 26.163125 -4.88867188 25.28125 C-6.68212249 21.60961882 -8 18.90726486 -8 14.78125 C-6.80724131 11.46388991 -5.27577954 8.63309379 -3.4375 5.625 C-2.79683594 4.56539062 -2.15617188 3.50578125 -1.49609375 2.4140625 C-1.00238281 1.61742187 -0.50867188 0.82078125 0 0 Z " fill="#272418" transform="translate(209,139)"/>
<path d="M0 0 C0.33893061 5.53586661 -0.6865284 9.00290134 -3 14 C-3.69140522 16.77888613 -3.69140522 16.77888613 -4 19 C-4.66 19 -5.32 19 -6 19 C-7.83647339 21.49393327 -7.83647339 21.49393327 -9.625 24.625 C-10.25664062 25.66914063 -10.88828125 26.71328125 -11.5390625 27.7890625 C-13.08109838 31.17824296 -13.29783285 33.32672824 -13 37 C-14.97778953 35.36617387 -15.93171939 34.18752665 -16.81640625 31.7578125 C-17.07363393 27.89392434 -15.65123031 26.24519708 -13.5 23.0625 C-9.06316934 16.30166218 -5.49686107 9.2887698 -2 2 C-2.68964844 2.0721875 -3.37929687 2.144375 -4.08984375 2.21875 C-10.09588659 2.81193942 -15.9657 3.09892295 -22 3 C-22 2.67 -22 2.34 -22 2 C-7.40318907 -0.29612756 -7.40318907 -0.29612756 0 0 Z " fill="#CF9714" transform="translate(215,122)"/>
<path d="M0 0 C0.33 0.66 0.66 1.32 1 2 C2.65104805 2.70445905 4.32089167 3.365321 6 4 C7.62276005 4.82979786 9.23201416 5.68643758 10.828125 6.56640625 C11.70984375 7.05173828 12.5915625 7.53707031 13.5 8.03710938 C14.4075 8.54048828 15.315 9.04386719 16.25 9.5625 C17.17296875 10.06974609 18.0959375 10.57699219 19.046875 11.09960938 C25.86414717 14.86414717 25.86414717 14.86414717 27 16 C27.04080783 17.99958364 27.04254356 20.00045254 27 22 C26.51273438 21.6596875 26.02546875 21.319375 25.5234375 20.96875 C21.90180406 18.49286969 18.26715508 16.11726671 14.42578125 13.99609375 C13.80848145 13.65449219 13.19118164 13.31289062 12.55517578 12.9609375 C11.33337086 12.29142034 10.10660431 11.63085967 8.87451172 10.98046875 C5.00081201 8.85586582 2.40885674 6.71737152 0 3 C0 2.01 0 1.02 0 0 Z " fill="#242117" transform="translate(123,152)"/>
<path d="M0 0 C4.31755094 0.28940106 6.26008701 1.882536 9.10546875 5.06054688 C9.56566406 5.59744141 10.02585938 6.13433594 10.5 6.6875 C10.96019531 7.20505859 11.42039063 7.72261719 11.89453125 8.25585938 C13.75624027 10.36142606 15.59140031 12.45995127 17.2878418 14.70214844 C19.18582351 17.17864354 20.44169299 18.81715224 23.45703125 19.8046875 C24.23433594 19.82789062 25.01164062 19.85109375 25.8125 19.875 C26.60269531 19.91367188 27.39289063 19.95234375 28.20703125 19.9921875 C29.09455078 19.99605469 29.09455078 19.99605469 30 20 C30 20.33 30 20.66 30 21 C25.83214916 22.19289274 22.30304715 22.68729225 18 22 C13.54411796 18.60006917 10.35482221 14.45112538 7 10 C6.26007813 9.08605469 5.52015625 8.17210938 4.7578125 7.23046875 C0 1.31664157 0 1.31664157 0 0 Z " fill="#2C2618" transform="translate(163,104)"/>
<path d="M0 0 C2.96286971 0.39504929 4.85751023 0.84805672 7.5625 1.875 C14.91508094 4.58722829 23.00309442 4.78965806 30.75 5.5 C31.245 7.48 31.245 7.48 31.75 9.5 C27.19783571 9.71676973 24.0346728 8.94500716 19.75 7.5 C16.90906043 6.75465315 14.04989192 6.09497518 11.1875 5.4375 C10.44564453 5.26412109 9.70378906 5.09074219 8.93945312 4.91210938 C7.51112471 4.58014703 6.08155758 4.25345606 4.65063477 3.93286133 C3.04974154 3.56826484 1.45722367 3.1671714 -0.1328125 2.7578125 C-0.83148438 2.67273438 -1.53015625 2.58765625 -2.25 2.5 C-4.58454661 4.33358335 -4.58454661 4.33358335 -6.25 6.5 C-6.91 6.17 -7.57 5.84 -8.25 5.5 C-5.60889212 2.29865712 -4.17830483 0.64281613 0 0 Z " fill="#E1A415" transform="translate(181.25,175.5)"/>
<path d="M0 0 C2.00720923 0.28674418 4.0085944 0.61866701 6 1 C6.33 2.98 6.66 4.96 7 7 C5.10399631 6.68853528 3.20820413 6.37578283 1.3125 6.0625 C0.25675781 5.88847656 -0.79898438 5.71445313 -1.88671875 5.53515625 C-3.795928 5.20697348 -5.70054822 4.84807388 -7.59375 4.4375 C-10.05840447 3.98938101 -12.31095834 3.90016356 -14.8125 3.9375 C-15.99779297 3.95103516 -15.99779297 3.95103516 -17.20703125 3.96484375 C-18.09455078 3.98224609 -18.09455078 3.98224609 -19 4 C-19 3.34 -19 2.68 -19 2 C-17.71222656 1.93941406 -16.42445313 1.87882813 -15.09765625 1.81640625 C-13.41925841 1.73201753 -11.74087364 1.6473687 -10.0625 1.5625 C-8.78729492 1.50352539 -8.78729492 1.50352539 -7.48632812 1.44335938 C-6.67744141 1.40146484 -5.86855469 1.35957031 -5.03515625 1.31640625 C-3.91185913 1.26141968 -3.91185913 1.26141968 -2.76586914 1.20532227 C-0.97538674 1.18228937 -0.97538674 1.18228937 0 0 Z " fill="#28261A" transform="translate(201,184)"/>
<path d="M0 0 C0.33 0 0.66 0 1 0 C0.95359375 0.70125 0.9071875 1.4025 0.859375 2.125 C0.63314793 8.07154008 0.95380176 12.14795213 4.125 17.24609375 C5 19 5 19 5 23 C2 22 2 22 0.61328125 19.70703125 C0.18402344 18.75183594 -0.24523437 17.79664063 -0.6875 16.8125 C-1.12449219 15.87019531 -1.56148437 14.92789063 -2.01171875 13.95703125 C-3.08484607 10.7461325 -3.27986285 8.36301856 -3 5 C-1.5625 2.125 -1.5625 2.125 0 0 Z " fill="#000000" transform="translate(211,150)"/>
<path d="M0 0 C2 2 2 2 2.1953125 5.2578125 C2.16050781 7.17207031 2.16050781 7.17207031 2.125 9.125 C2.10695312 10.40632812 2.08890625 11.68765625 2.0703125 13.0078125 C2.04710937 13.99523437 2.02390625 14.98265625 2 16 C-2.18773831 14.1830061 -3.29477852 12.2630537 -5 8 C-5 6.68 -5 5.36 -5 4 C-4.0409375 3.8453125 -4.0409375 3.8453125 -3.0625 3.6875 C-2.381875 3.460625 -1.70125 3.23375 -1 3 C-0.67 2.01 -0.34 1.02 0 0 Z " fill="#1C1A17" transform="translate(206,149)"/>
<path d="M0 0 C0.34615998 5.65394631 -0.56574762 9.03006806 -3 14 C-3.66 13.01 -4.32 12.02 -5 11 C-4.5390625 8.73828125 -4.5390625 8.73828125 -3.625 6.3125 C-3.32851562 5.50425781 -3.03203125 4.69601563 -2.7265625 3.86328125 C-2.36691406 2.94095703 -2.36691406 2.94095703 -2 2 C-2.68964844 2.0721875 -3.37929687 2.144375 -4.08984375 2.21875 C-10.09588659 2.81193942 -15.9657 3.09892295 -22 3 C-22 2.67 -22 2.34 -22 2 C-7.40318907 -0.29612756 -7.40318907 -0.29612756 0 0 Z " fill="#D2A415" transform="translate(215,122)"/>
<path d="M0 0 C3.37607648 0.78712148 6.75065054 1.58051031 10.125 2.375 C11.55199219 2.70757812 11.55199219 2.70757812 13.0078125 3.046875 C17.75624604 4.16803292 22.40247885 5.343654 27 7 C23.80225146 8.0253055 21.63992734 7.93552974 18.375 7.22265625 C17.50359375 7.03896484 16.6321875 6.85527344 15.734375 6.66601562 C14.83203125 6.46685547 13.9296875 6.26769531 13 6.0625 C11.20908523 5.67489487 9.41743874 5.29065175 7.625 4.91015625 C6.83351562 4.73621338 6.04203125 4.56227051 5.2265625 4.38305664 C2.7195309 3.88696756 2.7195309 3.88696756 -1 4 C-0.67 2.68 -0.34 1.36 0 0 Z " fill="#B48214" transform="translate(180,177)"/>
<path d="M0 0 C0 0.66 0 1.32 0 2 C-3.96 3.98 -3.96 3.98 -8 6 C-7.401875 6.433125 -6.80375 6.86625 -6.1875 7.3125 C-4 9 -4 9 -1 12 C-3.97 11.01 -6.94 10.02 -10 9 C-10.375 6.75 -10.375 6.75 -10 4 C-6.39423163 0.96787659 -4.77053792 0 0 0 Z " fill="#E9AB16" transform="translate(133,143)"/>
<path d="M0 0 C0.33 0 0.66 0 1 0 C0.67 6.27 0.34 12.54 0 19 C-0.66 19 -1.32 19 -2 19 C-2.33 19.99 -2.66 20.98 -3 22 C-4.98213939 18.03572122 -3.29878302 12.93369695 -2 8.875 C-1.67 7.92625 -1.34 6.9775 -1 6 C-0.63079809 4.00630969 -0.28674418 2.00720923 0 0 Z " fill="#D6A412" transform="translate(155,112)"/>
<path d="M0 0 C6.93 0.495 6.93 0.495 14 1 C14.33 2.32 14.66 3.64 15 5 C9.17728663 5.59720137 5.0790596 3.528243 0 1 C0 0.67 0 0.34 0 0 Z " fill="#E1A921" transform="translate(198,180)"/>
<path d="M0 0 C0.66 0 1.32 0 2 0 C2 2.64 2 5.28 2 8 C1.34 8 0.68 8 0 8 C-1.63676257 9.9600281 -1.63676257 9.9600281 -3 12 C-2.88541307 10.56163249 -2.75790884 9.12429034 -2.625 7.6875 C-2.55539063 6.88699219 -2.48578125 6.08648437 -2.4140625 5.26171875 C-2 3 -2 3 0 0 Z " fill="#C18F1F" transform="translate(209,133)"/>
<path d="M0 0 C4.30764815 1.56641751 8.06171464 3.68336156 12 6 C9.45297384 7.27351308 8.5717055 6.80191925 5.875 6.0625 C5.15054688 5.86785156 4.42609375 5.67320312 3.6796875 5.47265625 C3.12539062 5.31667969 2.57109375 5.16070312 2 5 C2 4.01 2 3.02 2 2 C1.34 2 0.68 2 0 2 C0 1.34 0 0.68 0 0 Z " fill="#D99F15" transform="translate(138,158)"/>
<path d="M0 0 C2.15377564 2.62198774 3.40072174 4.64404172 4 8 C2.02 8.99 2.02 8.99 0 10 C-0.33 8.68 -0.66 7.36 -1 6 C-0.34 6 0.32 6 1 6 C0.67 4.02 0.34 2.04 0 0 Z " fill="#2B2A1C" transform="translate(210,166)"/>
<path d="M0 0 C1.9375 0.5 1.9375 0.5 4 2 C4.68790422 4.69658452 4.81946464 7.2017019 5 10 C4.34 10 3.68 10 3 10 C0.96564469 6.27034861 0 4.33094958 0 0 Z " fill="#262214" transform="translate(201,153)"/>
<path d="M0 0 C1.39195915 4.17587745 -0.17676781 6.13474776 -2 10 C-2.66 9.01 -3.32 8.02 -4 7 C-3.25 3.875 -3.25 3.875 -2 1 C-1.34 0.67 -0.68 0.34 0 0 Z " fill="#DCAD42" transform="translate(214,126)"/>
<path d="M0 0 C0.33 0.66 0.66 1.32 1 2 C1.66 2.309375 2.32 2.61875 3 2.9375 C5 4 5 4 6 7 C7.49985609 8.66710346 7.49985609 8.66710346 9 10 C4.5969913 8.65463623 2.528436 6.83947688 0 3 C0 2.01 0 1.02 0 0 Z " fill="#322E18" transform="translate(123,152)"/>
<path d="M0 0 C2.9375 0.375 2.9375 0.375 6 1 C7.4783226 3.95664519 7.06032783 6.74229737 7 10 C6.67 10 6.34 10 6 10 C5.938125 9.071875 5.87625 8.14375 5.8125 7.1875 C5.31837701 3.80967689 5.31837701 3.80967689 2.4375 2.1875 C1.633125 1.795625 0.82875 1.40375 0 1 C0 0.67 0 0.34 0 0 Z " fill="#AA7C16" transform="translate(144,164)"/>
<path d="M0 0 C0 0.66 0 1.32 0 2 C-2.64738916 3.4606285 -3.89448334 4 -7 4 C-6.67 3.01 -6.34 2.02 -6 1 C-4 0 -4 0 0 0 Z " fill="#C69713" transform="translate(133,143)"/>
</svg>
